<?xml version="1.0" encoding="utf-8"?>
<!-- Generator: Adobe Illustrator 23.0.0, SVG Export Plug-In . SVG Version: 6.00 Build 0)  -->
<svg version="1.1" id="Layer_1" xmlns="http://www.w3.org/2000/svg" xmlns:xlink="http://www.w3.org/1999/xlink" x="0px" y="0px"
	 viewBox="0 0 27.8 27.6" style="enable-background:new 0 0 27.8 27.6;" xml:space="preserve">
<g id="icomoon-ignore">
</g>
<g>
	<path d="M27.6,13.6c-0.3-0.2-4.8-4.7-13.4-13.3L14,0L8.9,5V3.4H4V10l-4,3.9l1.4,1.4L14,2.6l12.3,12.3l0.3,0.3l1-1.2l0.3-0.3
		L27.6,13.6z M7.2,5.2v1.5L5.7,8.2v-3H7.2z"/>
	<path d="M4,14.2v13.4h8.3v-7.5h3.5v7.5h8.3V14.2l-9.9-9.9L4,14.2z M10.4,18.2v7.6H5.7V15l8.1-8.1L22,15c0.1,0.8,0.1,6.9,0.1,10.7
		h-4.6v-7.5H10.4z"/>
</g>
</svg>
