<?xml version="1.0" encoding="utf-8"?>
<!-- Generator: Adobe Illustrator 23.0.0, SVG Export Plug-In . SVG Version: 6.00 Build 0)  -->
<svg version="1.1" id="Layer_1" xmlns="http://www.w3.org/2000/svg" xmlns:xlink="http://www.w3.org/1999/xlink" x="0px" y="0px"
	 viewBox="0 0 60 56" style="enable-background:new 0 0 60 56;" xml:space="preserve">
<style type="text/css">
	.st0{fill-rule:evenodd;clip-rule:evenodd;}
</style>
<g id="Arrow_2_">
	<g>
		<path class="st0" d="M44,56L44,56c1.1,0,2.1-0.4,2.8-1.2l12-12c0.7-0.7,1.2-1.7,1.2-2.8c0-2.2-1.8-4-4-4c-1.1,0-2.1,0.4-2.8,1.2
			L48,42.4V22C48,9.9,38.2,0,26,0H4C1.8,0,0,1.8,0,4s1.8,4,4,4h22c7.7,0,14,6.3,14,14v20.4l-5.2-5.2C34.1,36.4,33.1,36,32,36
			c-2.2,0-4,1.8-4,4c0,1.1,0.4,2.1,1.2,2.8l12,12C41.9,55.5,42.8,56,44,56C43.9,56,44,56,44,56L44,56z"/>
	</g>
</g>
</svg>
