<?xml version="1.0" encoding="utf-8"?>
<!-- Generator: Adobe Illustrator 23.0.0, SVG Export Plug-In . SVG Version: 6.00 Build 0)  -->
<svg version="1.1" id="Layer_1" xmlns="http://www.w3.org/2000/svg" xmlns:xlink="http://www.w3.org/1999/xlink" x="0px" y="0px"
	 viewBox="0 0 384 448" style="enable-background:new 0 0 384 448;" xml:space="preserve">
<g>
	<g id="Icon_7_">
		<g>
			<path d="M168,274.7h48V144h-48V274.7z"/>
		</g>
	</g>
	<g>
		<path d="M343.7,138.3l30.8-30.8l-33.9-33.9l-30.8,30.8C277.2,79.1,236.4,64,192,64C86,64,0,150,0,256s86,192,192,192
			s192-86,192-192C384,211.6,368.9,170.8,343.7,138.3z M298.1,362.1c-28.3,28.3-66,43.9-106.1,43.9s-77.7-15.6-106.1-43.9
			C57.6,333.7,42,296.1,42,256s15.6-77.7,43.9-106.1c28.3-28.3,66-43.9,106.1-43.9s77.7,15.6,106.1,43.9
			c28.3,28.3,43.9,66,43.9,106.1S326.4,333.7,298.1,362.1z"/>
		<rect x="128" width="128" height="48"/>
	</g>
</g>
</svg>
