<?xml version="1.0" encoding="utf-8"?>
<!-- Generator: Adobe Illustrator 23.0.0, SVG Export Plug-In . SVG Version: 6.00 Build 0)  -->
<svg version="1.1" xmlns="http://www.w3.org/2000/svg" xmlns:xlink="http://www.w3.org/1999/xlink" x="0px" y="0px"
	 viewBox="0 0 416 416" style="enable-background:new 0 0 416 416;" xml:space="preserve">
<g id="Layer_1">
	<path d="M122.7,168.5l-29.1,29.1l93.6,93.6l208-208l-29.1-29.1L187.2,231.9L122.7,168.5z M374.4,208c0,91.5-74.9,166.4-166.4,166.4
		S41.6,299.5,41.6,208S116.5,41.6,208,41.6c15.6,0,31.2,2.1,45.8,6.2L286,15.6C262.1,5.2,236.1,0,208,0C93.6,0,0,93.6,0,208
		s93.6,208,208,208s208-93.6,208-208H374.4z"/>
</g>
<g id="Layer_2">
</g>
</svg>
