<?xml version="1.0" encoding="utf-8"?>
<!-- Generator: Adobe Illustrator 23.0.0, SVG Export Plug-In . SVG Version: 6.00 Build 0)  -->
<svg version="1.1" id="Layer_1" xmlns="http://www.w3.org/2000/svg" xmlns:xlink="http://www.w3.org/1999/xlink" x="0px" y="0px"
	 viewBox="0 0 56 60" style="enable-background:new 0 0 56 60;" xml:space="preserve">
<style type="text/css">
	.st0{fill-rule:evenodd;clip-rule:evenodd;}
</style>
<g id="Arrow_2_">
	<g>
		<path class="st0" d="M56,16L56,16c0-1.1-0.4-2.1-1.2-2.8l-12-12C42.1,0.4,41.1,0,40,0c-2.2,0-4,1.8-4,4c0,1.1,0.4,2.1,1.2,2.8
			l5.2,5.2H22C9.9,12,0,21.9,0,34v22c0,2.2,1.8,4,4,4s4-1.8,4-4V34c0-7.7,6.3-14,14-14h20.4l-5.2,5.2C36.4,25.9,36,26.9,36,28
			c0,2.2,1.8,4,4,4c1.1,0,2.1-0.4,2.8-1.2l12-12C55.5,18.1,55.9,17.1,56,16C56,16.1,56,16,56,16L56,16z"/>
	</g>
</g>
</svg>
