<?xml version="1.0" encoding="utf-8"?>
<!-- Generator: Adobe Illustrator 22.1.0, SVG Export Plug-In . SVG Version: 6.00 Build 0)  -->
<svg version="1.1" id="Layer_1" xmlns="http://www.w3.org/2000/svg" xmlns:xlink="http://www.w3.org/1999/xlink" x="0px" y="0px"
	 viewBox="0 0 185 183" style="enable-background:new 0 0 185 183;" xml:space="preserve">
<style type="text/css">
	.st0{fill:#0F2F68;}
	.st1{opacity:0.2;}
</style>
<g>
	<path class="st0" d="M175,15h-11V6c0-3.3-2.7-6-6-6H6C2.7,0,0,2.7,0,6v152c0,3.3,2.7,6,6,6h11v9.3c0,3.2,2.6,5.8,6,5.8h152
		c3.4,0,6-2.5,6-5.8v-152C181,17.9,178.3,15,175,15z M6,4h152c1.1,0,2,0.9,2,2v33H4V6C4,4.9,4.9,4,6,4z M4,158V43h156v115
		c0,1.1-0.9,2-2,2H6C4.9,160,4,159.1,4,158z M177,173.3c0,1.2-1,1.8-2,1.8H23c-1,0-2-0.5-2-1.8V164h137c3.3,0,6-2.7,6-6V19h11
		c1,0,2,1.1,2,2.3V173.3z"/>
	<g>
		<g>
			<path class="st0" d="M26,31.5c-5,0-9-4-9-9s4-9,9-9s9,4,9,9S31,31.5,26,31.5z M26,17.5c-2.8,0-5,2.2-5,5s2.2,5,5,5s5-2.2,5-5
				S28.8,17.5,26,17.5z"/>
		</g>
		<g>
			<path class="st0" d="M48,31.5c-5,0-9-4-9-9s4-9,9-9s9,4,9,9S53,31.5,48,31.5z M48,17.5c-2.8,0-5,2.2-5,5s2.2,5,5,5s5-2.2,5-5
				S50.8,17.5,48,17.5z"/>
		</g>
		<g>
			<path class="st0" d="M70,31.5c-5,0-9-4-9-9s4-9,9-9s9,4,9,9S75,31.5,70,31.5z M70,17.5c-2.8,0-5,2.2-5,5s2.2,5,5,5s5-2.2,5-5
				S72.8,17.5,70,17.5z"/>
		</g>
	</g>
	<g class="st1">
		<path class="st0" d="M181,23h-13v141.3c0,2.2-1.8,3.8-4,3.8H25v11.3c0,2.2,1.8,3.8,4,3.8h152c2.2,0,4-1.5,4-3.8v-152
			C185,25,183.2,23,181,23z"/>
	</g>
	<g class="st1">
		<g>
			<circle class="st0" cx="32" cy="28.5" r="7"/>
		</g>
		<g>
			<circle class="st0" cx="54" cy="28.5" r="7"/>
		</g>
		<g>
			<circle class="st0" cx="76" cy="28.5" r="7"/>
		</g>
	</g>
	<g>
		<g>
			<g>
				<path class="st0" d="M59,124c-1.1,0-2-0.9-2-2v-16H44.6c-0.7,0-1.3-0.3-1.6-0.9s-0.5-1.2-0.2-1.8l7.2-19.9
					c0.4-1,1.5-1.6,2.6-1.2c1,0.4,1.6,1.5,1.2,2.6L47.4,102H59c1.1,0,2,0.9,2,2v18C61,123.1,60.1,124,59,124z"/>
			</g>
			<g>
				<path class="st0" d="M117,124c-1.1,0-2-0.9-2-2v-16h-12.4c-0.7,0-1.3-0.3-1.6-0.9s-0.5-1.2-0.2-1.8l7.2-19.9
					c0.4-1,1.5-1.6,2.6-1.2c1,0.4,1.6,1.5,1.2,2.6l-6.2,17.2H117c1.1,0,2,0.9,2,2v18C119,123.1,118.1,124,117,124z"/>
			</g>
			<g>
				<path class="st0" d="M81,124c-6.1,0-11-4.9-11-11V93c0-6.1,4.9-11,11-11s11,4.9,11,11v20C92,119.1,87.1,124,81,124z M81,86
					c-3.9,0-7,3.1-7,7v20c0,3.9,3.1,7,7,7s7-3.1,7-7V93C88,89.1,84.9,86,81,86z"/>
			</g>
		</g>
		<g class="st1">
			<g>
				<path class="st0" d="M65,130c-1.1,0-2-0.9-2-2v-16H50.6c-0.7,0-1.3-0.3-1.6-0.9s-0.5-1.2-0.2-1.8l7.2-19.9
					c0.4-1,1.5-1.6,2.6-1.2c1,0.4,1.6,1.5,1.2,2.6L53.4,108H65c1.1,0,2,0.9,2,2v18C67,129.1,66.1,130,65,130z"/>
			</g>
			<g>
				<path class="st0" d="M123,130c-1.1,0-2-0.9-2-2v-16h-12.4c-0.7,0-1.3-0.3-1.6-0.9s-0.5-1.2-0.2-1.8l7.2-19.9
					c0.4-1,1.5-1.6,2.6-1.2c1,0.4,1.6,1.5,1.2,2.6l-6.2,17.2H123c1.1,0,2,0.9,2,2v18C125,129.1,124.1,130,123,130z"/>
			</g>
			<g>
				<path class="st0" d="M87,130c-6.1,0-11-4.9-11-11V99c0-6.1,4.9-11,11-11s11,4.9,11,11v20C98,125.1,93.1,130,87,130z M87,92
					c-3.9,0-7,3.1-7,7v20c0,3.9,3.1,7,7,7s7-3.1,7-7V99C94,95.1,90.9,92,87,92z"/>
			</g>
		</g>
	</g>
</g>
</svg>
